<svg width="295" height="295" viewBox="0 0 295 295" fill="none" xmlns="http://www.w3.org/2000/svg">
<circle cx="147.5" cy="147.5" r="147.5" fill="#F2E7C7"/>
<path d="M250.774 128.669C250.774 134.773 249.802 140.297 247.857 145.238C245.913 150.18 243.082 153.814 239.364 156.14L255 194.617L235.859 195.744L215.967 160.406H213.713L211.698 195.744H195.381L194.754 98H230.871C235.103 98 238.706 99.405 241.68 102.215C244.712 104.928 246.971 108.659 248.458 113.407C250.002 118.058 250.774 123.145 250.774 128.669ZM231.471 129.977C231.471 127.36 230.957 125.18 229.927 123.436C228.898 121.692 227.639 120.82 226.152 120.82H213.713V139.279H226.152C227.639 139.279 228.898 138.407 229.927 136.663C230.957 134.822 231.471 132.593 231.471 129.977Z" fill="#E78E42"/>
<path d="M151.798 198L144.548 168.262L137.213 198H120.47L101.874 131.858H122.282L129.187 170.942H129.791L136.954 131.858H154.042L160.946 170.942L172.813 131.083H187.223L168.54 198H151.798Z" fill="#11100D"/>
<path d="M96.1443 128.669C96.1443 134.773 95.1088 140.297 93.0378 145.238C90.9668 150.18 87.9517 153.814 83.9925 156.14L101.56 196.12H80.8504L63.9062 162.286H57.6305L58.5718 196.12L41.6276 197.248L41 98H74.9471C79.4546 98 83.292 99.405 86.4594 102.215C89.6877 104.928 92.0937 108.659 93.6774 113.407C95.322 118.058 96.1443 123.145 96.1443 128.669ZM75.5867 129.977C75.5867 127.36 75.0385 125.18 73.9421 123.436C72.8457 121.692 71.5056 120.82 69.9219 120.82H56.6737V139.279H69.9219C71.5056 139.279 72.8457 138.407 73.9421 136.663C75.0385 134.822 75.5867 132.593 75.5867 129.977Z" fill="#C54C3C"/>
</svg>
